<?xml version="1.0" encoding="UTF-8"?>
<svg id="Layer_1" data-name="Layer 1" xmlns="http://www.w3.org/2000/svg" viewBox="0 0 928 326">
  <defs>
    <style>
      .cls-1 {
        fill: none;
        stroke: #000;
        stroke-miterlimit: 10;
        stroke-width: 8px;
      }
    </style>
  </defs>
  <path d="M303.27,185.14c-7.4,13.52-17.46,25.25-30.17,35.19-12.71,9.94-27.52,17.59-44.42,22.96-16.91,5.37-34.86,8.05-53.86,8.05s-36.53-2.63-53.31-7.9c-16.79-5.27-31.46-12.72-44.05-22.37-12.59-9.64-22.52-21.17-29.8-34.59s-10.92-28.18-10.92-44.28c0-17.1,3.82-32.45,11.48-46.07,7.65-13.62,17.95-25.15,30.91-34.59,12.95-9.44,28.13-16.7,45.53-21.77,17.4-5.07,35.72-7.6,54.97-7.6,20.97,0,39.79,2.98,56.45,8.95,16.66,5.96,30.78,13.97,42.38,24.01,11.6,10.04,20.48,21.62,26.65,34.74,6.16,13.12,9.25,26.84,9.25,41.15,0,15.91-3.7,30.62-11.11,44.13h.02ZM262.74,104.62c-3.83-12.32-9.62-23.51-17.4-33.55-7.77-10.04-17.46-18.19-29.06-24.45s-25.3-9.39-41.09-9.39-29.93,3.13-41.64,9.39c-11.72,6.26-21.35,14.36-28.87,24.3-7.53,9.94-13.08,21.22-16.66,33.85-3.58,12.63-5.37,25.4-5.37,38.32s1.97,26.54,5.92,39.06c3.94,12.52,9.81,23.56,17.58,33.1,7.77,9.54,17.52,17.2,29.24,22.96,11.72,5.77,25.36,8.65,40.9,8.65s29.06-3.18,40.53-9.54c11.48-6.36,21.04-14.56,28.69-24.6,7.65-10.04,13.38-21.32,17.21-33.85,3.82-12.52,5.74-25.05,5.74-37.57s-1.91-24.35-5.74-36.68h.02Z"/>
  <path d="M574.21,104.32c-3.21-9.54-8.02-18.49-14.44-26.84-6.42-8.35-14.01-15.6-22.76-21.77-8.76-6.16-18.64-11.03-29.62-14.61-10.98-3.58-22.64-5.37-34.98-5.37-17.03,0-32.2,3.08-45.53,9.24-13.33,6.16-24.49,14.31-33.5,24.45-9.01,10.14-15.92,21.62-20.73,34.44s-7.22,26-7.22,39.51c0,14.31,2.53,27.73,7.59,40.26,5.05,12.53,12.27,23.41,21.65,32.65,9.37,9.25,20.73,16.55,34.06,21.92s28.13,8.05,44.42,8.05c12.83,0,24.86-1.89,36.09-5.67,11.23-3.77,21.22-8.74,29.98-14.91,8.76-6.16,16.16-13.27,22.21-21.32,6.04-8.05,10.18-16.35,12.4-24.9h4.44s-11.6,59.15-14.81,56.36c-3.21-2.78-5.43-4.17-6.66-4.17-.5,0-2.59.95-6.29,2.83-3.7,1.89-9.01,4.02-15.92,6.41-6.91,2.38-15.36,4.57-25.36,6.56-10,1.99-21.54,3.08-34.61,3.28l-10.37,11.93c6.17,1.19,11.35,2.88,15.55,5.07,4.19,2.19,7.59,4.62,10.18,7.31s4.5,5.37,5.74,8.05c1.23,2.68,1.85,5.22,1.85,7.6,0,4.77-1.48,8.95-4.44,12.53s-6.61,6.56-10.92,8.95c-4.32,2.39-8.83,4.17-13.51,5.37-4.69,1.19-8.88,1.79-12.59,1.79-8.88,0-16.29-1.09-22.21-3.28-5.92-2.19-8.88-5.87-8.88-11.03,0-2.19.93-4.28,2.78-6.26,1.85-1.99,4.87-2.98,9.07-2.98,2.96,0,5.3.34,7.03,1.04,1.72.69,3.2,1.54,4.44,2.53,0,1.39-.06,2.58-.19,3.58-.13.99-.19,1.89-.19,2.68,0,6.56,3.33,9.84,10,9.84,4.93,0,9.13-1.49,12.59-4.48,3.45-2.98,5.18-7.36,5.18-13.12s-2.72-10.69-8.14-14.76c-5.43-4.08-13.33-6.91-23.69-8.5l24.43-23.86c-22.95,0-43.62-2.63-62-7.9-18.39-5.27-33.93-12.72-46.64-22.37-12.71-9.64-22.52-21.17-29.43-34.59s-10.37-28.08-10.37-43.98c0-3.58.31-7.65.93-12.23.61-4.57,1.72-9.44,3.33-14.61,1.6-5.17,3.82-10.59,6.66-16.25,2.83-5.67,6.48-11.38,10.92-17.15,5.18-6.76,11.6-13.22,19.25-19.38,7.65-6.16,16.66-11.58,27.02-16.25s22.08-8.4,35.17-11.18c13.08-2.78,27.76-4.18,44.05-4.18,14.81,0,27.76,1.1,38.87,3.28,11.1,2.19,20.36,4.58,27.76,7.16,7.4,2.59,13.08,4.97,17.03,7.16,3.94,2.19,6.17,3.28,6.66,3.28s1.42-.45,2.78-1.34c1.36-.9,2.83-1.99,4.44-3.28,1.6-1.29,3.27-2.78,5-4.47,1.72-1.69,8.88,61.58,8.88,61.58l-4.44.3h0Z"/>
  <path d="M821.99,249.85c-2.7-1.79-4.66-3.13-5.85-4.03-1.2-.9-2.56-1.94-4.05-3.13-1.51-1.19-3.38-2.93-5.63-5.22-2.25-2.28-5.78-5.71-10.58-10.29-5.7-5.56-10.73-10.59-15.08-15.06-4.35-4.48-8.78-8.9-13.28-13.27-4.5-4.37-9.38-8.8-14.62-13.27-5.26-4.47-11.47-9.49-18.68-15.06-6.01-4.57-12.53-8.84-19.58-12.82-7.05-3.97-14.48-6.46-22.28-7.46-5.71-.79-10.06-1.19-13.05-1.19-2.7,0-6.15-.1-10.35-.3v33.7c0,9.54.15,17.59.45,24.15.3,6.37.6,11.83.9,16.4.3,4.57,1.95,8.35,4.95,11.33,2.4,2.59,7.05,5.22,13.95,7.9s16.5,4.23,28.8,4.62v2.98h-144.02v-2.98c7.5-.79,14.7-1.98,21.6-3.58,6.9-1.59,12.3-3.97,16.2-7.15,1.5-1.19,2.7-2.98,3.6-5.37.9-2.39,1.57-5.07,2.03-8.05.45-2.98.82-6.16,1.12-9.54.3-3.38.45-6.66.45-9.84,0-2.78.07-6.56.23-11.33.15-4.77.29-9.99.45-15.66.15-5.67.23-11.48.23-17.45v-75.45c0-3.58-.08-7.2-.23-10.88-.15-3.68-.45-7.16-.9-10.44-.45-3.28-1.2-6.26-2.25-8.95-1.05-2.68-2.48-4.62-4.27-5.81-4.5-3.18-9.53-5.32-15.08-6.41s-12.38-2.04-20.47-2.83v-2.98h18.45c10.2,0,21.75-.05,34.65-.15,12.9-.1,25.8-.15,38.71-.15h31.5c20.1,0,37.95.4,53.56,1.19,15.6.8,29.85,3.48,42.76,8.05,13.2,4.57,23.85,10.79,31.96,18.64,8.1,7.86,12.15,17.74,12.15,29.67,0,7.36-2.03,13.97-6.08,19.83-4.05,5.87-9.45,11.03-16.2,15.51-6.75,4.47-14.62,8.3-23.62,11.48-9,3.18-18.46,5.87-28.36,8.05v.89c5.1,1.79,10.05,4.38,14.85,7.75,4.79,3.38,9.45,7.16,13.95,11.33,7.8,7.56,16.27,15.71,25.43,24.45,9.15,8.75,17.33,16.5,24.53,23.26,11.1,10.34,21.89,17.89,32.4,22.66,10.5,4.77,22.8,7.86,36.91,9.24v2.98h-92.26v.04ZM777.44,64.07c-7.5-7.75-18.45-13.91-32.85-18.49-7.2-2.19-14.78-3.77-22.73-4.77-7.96-.99-16.28-1.49-24.98-1.49-6.3,0-11.41.1-15.3.3-3.9.2-6.9.4-9,.6-.3,1.19-.6,2.24-.9,3.13-.3.89-.53,2.04-.68,3.43-.15,1.39-.3,3.33-.45,5.82-.15,2.49-.38,6.01-.67,10.59-.3,6.96-.53,14.81-.68,23.56-.15,8.75-.22,17.2-.22,25.35v32.8c12.3,0,23.78-.34,34.43-1.04,10.65-.69,20.93-2.13,30.83-4.32,9.6-1.99,17.84-4.67,24.75-8.05,6.9-3.38,12.53-7.2,16.88-11.48,4.34-4.27,7.57-8.9,9.68-13.87,2.09-4.97,3.15-10.14,3.15-15.51,0-9.94-3.76-18.79-11.25-26.54v-.02Z"/>
  <polygon class="cls-1" points="525.27 121.16 483.46 121.16 470.54 80.74 457.62 121.16 415.8 121.16 449.63 146.14 436.71 186.56 470.54 161.58 504.37 186.56 491.44 146.14 525.27 121.16"/>
</svg>