<svg xmlns="http://www.w3.org/2000/svg" version="1.1" xmlns:xlink="http://www.w3.org/1999/xlink" xmlns:svgjs="http://svgjs.dev/svgjs" width="352" height="326"><svg id="SvgjsSvg1002" data-name="Layer 1" xmlns="http://www.w3.org/2000/svg" viewBox="0 0 352 326">
  <defs>
    <style>
      .cls-1 {
        fill: none;
        stroke: #000;
        stroke-miterlimit: 10;
        stroke-width: 8px;
      }
    </style>
  </defs>
  <path d="M286.21,104.32c-3.21-9.54-8.02-18.49-14.44-26.84-6.42-8.35-14.01-15.6-22.76-21.77-8.76-6.16-18.64-11.03-29.62-14.61-10.98-3.58-22.64-5.37-34.98-5.37-17.03,0-32.2,3.08-45.53,9.24-13.33,6.16-24.49,14.31-33.5,24.45-9.01,10.14-15.92,21.62-20.73,34.44s-7.22,26-7.22,39.51c0,14.31,2.53,27.73,7.59,40.26,5.05,12.53,12.27,23.41,21.65,32.65,9.37,9.25,20.73,16.55,34.06,21.92s28.13,8.05,44.42,8.05c12.83,0,24.86-1.89,36.09-5.67,11.23-3.77,21.22-8.74,29.98-14.91,8.76-6.16,16.16-13.27,22.21-21.32,6.04-8.05,10.18-16.35,12.4-24.9h4.44s-11.6,59.15-14.81,56.36c-3.21-2.78-5.43-4.17-6.66-4.17-.5,0-2.59.95-6.29,2.83-3.7,1.89-9.01,4.02-15.92,6.41-6.91,2.38-15.36,4.57-25.36,6.56-10,1.99-21.54,3.08-34.61,3.28l-10.37,11.93c6.17,1.19,11.35,2.88,15.55,5.07,4.19,2.19,7.59,4.62,10.18,7.31s4.5,5.37,5.74,8.05c1.23,2.68,1.85,5.22,1.85,7.6,0,4.77-1.48,8.95-4.44,12.53s-6.61,6.56-10.92,8.95c-4.32,2.39-8.83,4.17-13.51,5.37-4.69,1.19-8.88,1.79-12.59,1.79-8.88,0-16.29-1.09-22.21-3.28-5.92-2.19-8.88-5.87-8.88-11.03,0-2.19.93-4.28,2.78-6.26,1.85-1.99,4.87-2.98,9.07-2.98,2.96,0,5.3.34,7.03,1.04,1.72.69,3.2,1.54,4.44,2.53,0,1.39-.06,2.58-.19,3.58-.13.99-.19,1.89-.19,2.68,0,6.56,3.33,9.84,10,9.84,4.93,0,9.13-1.49,12.59-4.48,3.45-2.98,5.18-7.36,5.18-13.12s-2.72-10.69-8.14-14.76c-5.43-4.08-13.33-6.91-23.69-8.5l24.43-23.86c-22.95,0-43.62-2.63-62-7.9-18.39-5.27-33.93-12.72-46.64-22.37-12.71-9.64-22.52-21.17-29.43-34.59s-10.37-28.08-10.37-43.98c0-3.58.31-7.65.93-12.23.61-4.57,1.72-9.44,3.33-14.61,1.6-5.17,3.82-10.59,6.66-16.25,2.83-5.67,6.48-11.38,10.92-17.15,5.18-6.76,11.6-13.22,19.25-19.38,7.65-6.16,16.66-11.58,27.02-16.25s22.08-8.4,35.17-11.18c13.08-2.78,27.76-4.18,44.05-4.18,14.81,0,27.76,1.1,38.87,3.28,11.1,2.19,20.36,4.58,27.76,7.16,7.4,2.59,13.08,4.97,17.03,7.16,3.94,2.19,6.17,3.28,6.66,3.28s1.42-.45,2.78-1.34c1.36-.9,2.83-1.99,4.44-3.28,1.6-1.29,3.27-2.78,5-4.47,1.72-1.69,8.88,61.58,8.88,61.58l-4.44.3h0Z"></path>
  <polygon class="cls-1" points="237.27 121.16 195.46 121.16 182.54 80.74 169.62 121.16 127.8 121.16 161.63 146.14 148.71 186.56 182.54 161.58 216.37 186.56 203.44 146.14 237.27 121.16"></polygon>
</svg><style>@media (prefers-color-scheme: light) { :root { filter: none; } }
@media (prefers-color-scheme: dark) { :root { filter: invert(100%); } }
</style></svg>